M48
; DRILL file {KiCad (7.0.0-0)} date Sunday, 19 March 2023 at 23:12:48
; FORMAT={-:-/ absolute / metric / decimal}
; #@! TF.CreationDate,2023-03-19T23:12:48+09:00
; #@! TF.GenerationSoftware,Kicad,Pcbnew,(7.0.0-0)
; #@! TF.FileFunction,Plated,1,2,PTH
FMAT,2
METRIC
; #@! TA.AperFunction,Plated,PTH,ViaDrill
T1C0.300
; #@! TA.AperFunction,Plated,PTH,ViaDrill
T2C0.400
; #@! TA.AperFunction,Plated,PTH,ComponentDrill
T3C1.000
; #@! TA.AperFunction,Plated,PTH,ComponentDrill
T4C2.200
; #@! TA.AperFunction,Plated,PTH,ComponentDrill
T5C3.200
%
G90
G05
T1
X105.58Y-133.85
X107.47Y-121.96
X107.79Y-110.07
X108.81Y-137.02
X109.375Y-128.31
X111.915Y-128.31
X112.1Y-106.32
X113.185Y-121.96
X114.455Y-128.31
X115.09Y-116.88
X115.725Y-121.96
X116.995Y-128.31
X118.265Y-121.96
X119.535Y-128.31
X120.17Y-116.88
X120.805Y-121.96
X122.075Y-128.31
X122.71Y-137.2
X123.345Y-121.96
X124.615Y-128.31
X125.25Y-115.61
X125.885Y-121.96
X126.52Y-105.45
X127.155Y-128.31
X128.425Y-121.96
X129.06Y-128.31
X130.965Y-121.96
X132.87Y-113.07
X132.87Y-128.31
X134.14Y-105.45
X134.775Y-121.96
X136.68Y-113.07
X136.68Y-121.96
X136.68Y-137.2
X136.85Y-109.5
X138.49Y-129.16
X140.998Y-135.422
X141.04Y-110.15
X141.125Y-121.96
X141.76Y-105.45
X142.395Y-128.31
X143.665Y-121.96
X145.57Y-128.31
X146.078Y-135.422
X146.205Y-121.96
X148.745Y-121.96
X149.38Y-105.45
X149.38Y-128.31
X150.72Y-109.48
X151.158Y-135.422
X151.158Y-137.962
X151.285Y-121.96
X151.92Y-112.435
X151.92Y-128.31
X153.53Y-109.51
X153.825Y-113.705
X154.46Y-128.31
X156.238Y-135.422
X157.0Y-105.45
X157.0Y-128.31
X157.65Y-110.13
X159.54Y-128.31
X161.318Y-135.422
X161.318Y-137.962
X161.79Y-109.53
X162.08Y-128.31
X163.2Y-110.16
X164.62Y-105.45
X164.62Y-128.31
X166.398Y-135.422
X167.16Y-128.31
X167.38Y-109.54
X168.7Y-112.85
X169.7Y-121.96
X169.7Y-128.31
X172.24Y-105.45
X172.24Y-115.61
X172.24Y-126.405
X172.875Y-129.58
X177.28Y-137.29
X179.606Y-124.754
X179.81Y-134.9
T2
X109.21Y-121.26
X111.74Y-121.21
X114.29Y-119.56
X116.84Y-114.61
X119.37Y-119.56
X121.91Y-117.436
X124.45Y-116.786
X126.949Y-116.111
X132.07Y-115.386
X133.84Y-121.11
X149.84Y-121.12
X154.89Y-114.61
X156.265Y-116.111
X159.04Y-116.46
X160.44Y-115.41
X161.83Y-117.436
X164.64Y-117.61
X166.04Y-118.21
X167.34Y-118.91
X170.14Y-119.91
X175.062Y-133.418
T3
X109.2Y-130.85
X109.2Y-133.39
X109.21Y-123.65
X109.21Y-126.19
X111.74Y-130.85
X111.74Y-133.39
X111.75Y-123.65
X111.75Y-126.19
X114.28Y-130.85
X114.28Y-133.39
X114.29Y-123.65
X114.29Y-126.19
X116.82Y-130.85
X116.82Y-133.39
X116.83Y-123.65
X116.83Y-126.19
X119.36Y-130.85
X119.36Y-133.39
X119.37Y-123.65
X119.37Y-126.19
X121.9Y-130.85
X121.9Y-133.39
X121.91Y-123.65
X121.91Y-126.19
X124.44Y-130.85
X124.44Y-133.39
X124.45Y-123.65
X124.45Y-126.19
X126.98Y-130.85
X126.98Y-133.39
X126.99Y-123.65
X126.99Y-126.19
X129.52Y-130.85
X129.52Y-133.39
X129.53Y-123.65
X129.53Y-126.19
X132.06Y-130.85
X132.06Y-133.39
X132.07Y-123.65
X132.07Y-126.19
X134.6Y-130.85
X134.6Y-133.39
X134.61Y-123.65
X134.61Y-126.19
X136.88Y-111.0
X137.14Y-130.85
X137.14Y-133.39
X137.15Y-123.65
X137.15Y-126.19
X138.265Y-108.16
X139.65Y-111.0
X139.68Y-130.85
X139.68Y-133.39
X139.69Y-123.65
X139.69Y-126.19
X141.035Y-108.16
X142.22Y-130.85
X142.22Y-133.39
X142.23Y-123.65
X142.23Y-126.19
X142.42Y-111.0
X143.805Y-108.16
X144.76Y-130.85
X144.76Y-133.39
X144.77Y-123.65
X144.77Y-126.19
X145.19Y-111.0
X146.575Y-108.16
X147.3Y-130.85
X147.3Y-133.39
X147.31Y-123.65
X147.31Y-126.19
X147.96Y-111.0
X149.345Y-108.16
X149.84Y-130.85
X149.84Y-133.39
X149.85Y-123.65
X149.85Y-126.19
X150.73Y-111.0
X152.115Y-108.16
X152.38Y-130.85
X152.38Y-133.39
X152.39Y-123.65
X152.39Y-126.19
X153.5Y-111.0
X154.885Y-108.16
X154.92Y-130.85
X154.92Y-133.39
X154.93Y-123.65
X154.93Y-126.19
X156.27Y-111.0
X157.46Y-130.85
X157.46Y-133.39
X157.47Y-123.65
X157.47Y-126.19
X157.655Y-108.16
X159.04Y-111.0
X160.0Y-130.85
X160.0Y-133.39
X160.01Y-123.65
X160.01Y-126.19
X160.425Y-108.16
X161.81Y-111.0
X162.54Y-130.85
X162.54Y-133.39
X162.55Y-123.65
X162.55Y-126.19
X163.195Y-108.16
X164.58Y-111.0
X165.08Y-130.85
X165.08Y-133.39
X165.09Y-123.65
X165.09Y-126.19
X165.965Y-108.16
X167.35Y-111.0
X167.62Y-130.85
X167.62Y-133.39
X167.63Y-123.65
X167.63Y-126.19
X168.735Y-108.16
X170.12Y-111.0
X170.16Y-130.85
X170.16Y-133.39
X170.17Y-123.65
X170.17Y-126.19
T4
X107.37Y-105.73
T5
X129.95Y-109.58
X177.05Y-109.58
T0
M30
